<svg width="40" height="40" viewBox="0 0 40 40" fill="none" xmlns="http://www.w3.org/2000/svg">
<g id="Subtract">
<path d="M29.349 30.6265H26.8568L10.5859 9.23216H13.2604L29.349 30.6265Z" fill="#EB8145"/>
<path fill-rule="evenodd" clip-rule="evenodd" d="M6.66667 0C2.98438 0 0 2.98476 0 6.66667V33.3333C0 37.0152 2.98438 40 6.66667 40H33.3333C37.0156 40 40 37.0152 40 33.3333V6.66667C40 2.98476 37.0156 0 33.3333 0H6.66667ZM32.9323 6.66667H28.4349L21.0234 15.1892L14.6146 6.66789H5.33333L16.4232 21.2496L5.91276 33.3333H10.4128L18.526 24.0105L25.6146 33.3333H34.6667L23.1055 17.9637L32.9323 6.66667Z" fill="#EB8145"/>
</g>
</svg>
