<svg width="40" height="40" viewBox="0 0 40 40" fill="none" xmlns="http://www.w3.org/2000/svg">
<path id="Combined Shape" d="M33.1429 40H6.85714C5.03913 39.998 3.29616 39.2749 2.01064 37.9894C0.725111 36.7038 0.00201665 34.9609 0 33.1429V6.85714C0.00201665 5.03913 0.725111 3.29616 2.01064 2.01064C3.29616 0.725111 5.03913 0.00201665 6.85714 0L33.1429 0C34.9609 0.00201665 36.7038 0.725111 37.9894 2.01064C39.2749 3.29616 39.998 5.03913 40 6.85714V33.1429C39.998 34.9609 39.2749 36.7038 37.9894 37.9894C36.7038 39.2749 34.9609 39.998 33.1429 40ZM15.9229 16.1905C15.9971 17.7619 15.9229 32.9648 15.9229 33.1143H21.5419V23.6648C21.519 23.1994 21.5836 22.7339 21.7324 22.2924C21.949 21.6983 22.3405 21.1836 22.8552 20.8163C23.37 20.4489 23.9839 20.246 24.6162 20.2343C26.48 20.2343 27.4648 21.5581 27.4648 24.0619V33.1162H33.0838V23.4124C33.2213 21.3281 32.5615 19.2694 31.2381 17.6533C30.6423 17.0346 29.9222 16.5491 29.1253 16.2286C28.3283 15.9082 27.4726 15.7602 26.6143 15.7943C25.5939 15.7491 24.5808 15.9863 23.6865 16.4799C22.7923 16.9734 22.0515 17.704 21.5457 18.5914V16.1905H15.9229ZM7.19143 16.1905V33.1143H12.8105V16.1905H7.19143ZM10.04 8.03238C9.6388 7.99873 9.23497 8.04806 8.85367 8.17729C8.47237 8.30652 8.12176 8.51288 7.8237 8.78352C7.52563 9.05417 7.28648 9.38329 7.12116 9.75039C6.95584 10.1175 6.86788 10.5147 6.86277 10.9173C6.85766 11.3198 6.9355 11.7192 7.09145 12.0903C7.24739 12.4615 7.4781 12.7966 7.7692 13.0747C8.0603 13.3528 8.40555 13.568 8.78345 13.7069C9.16135 13.8458 9.56379 13.9054 9.96571 13.8819H10.0038C10.4065 13.9152 10.8117 13.865 11.194 13.7344C11.5763 13.6038 11.9275 13.3956 12.2256 13.1229C12.5238 12.8501 12.7623 12.5188 12.9263 12.1496C13.0904 11.7803 13.1764 11.3812 13.179 10.9772C13.1815 10.5732 13.1006 10.173 12.9413 9.80169C12.7819 9.43042 12.5476 9.09606 12.253 8.81958C11.9584 8.5431 11.6098 8.33047 11.2292 8.19501C10.8485 8.05955 10.444 8.00418 10.041 8.03238H10.04Z" fill="#EB8145"/>
</svg>
