<svg width="30" height="30" viewBox="0 0 30 30" fill="none" xmlns="http://www.w3.org/2000/svg">
<path id="Combined Shape" d="M24.8565 29.9997H5.14243C3.77894 29.9981 2.47173 29.4558 1.50759 28.4917C0.543461 27.5276 0.00114626 26.2203 -0.000366211 24.8569V5.1428C0.00114626 3.77931 0.543461 2.47209 1.50759 1.50796C2.47173 0.543827 3.77894 0.00151247 5.14243 0L24.8565 0C26.22 0.00151247 27.5272 0.543827 28.4913 1.50796C29.4555 2.47209 29.9978 3.77931 29.9993 5.1428V24.8569C29.9978 26.2203 29.4555 27.5276 28.4913 28.4917C27.5272 29.4558 26.22 29.9981 24.8565 29.9997ZM9.06524 11.9799C8.93781 11.9814 8.81617 12.0333 8.727 12.1244C8.63782 12.2154 8.58839 12.3381 8.58953 12.4656V16.3755C8.58839 16.5029 8.63785 16.6255 8.72704 16.7164C8.81623 16.8074 8.93787 16.8592 9.06524 16.8605H12.1052V26.7261C12.1041 26.8535 12.1535 26.9761 12.2427 27.067C12.3319 27.158 12.4535 27.2098 12.5809 27.2111H16.548C16.6753 27.2096 16.7967 27.1577 16.8858 27.0668C16.9748 26.9759 17.0242 26.8534 17.023 26.7261V16.8569H20.578C20.7053 16.8556 20.827 16.8038 20.9162 16.7129C21.0054 16.6219 21.0548 16.4993 21.0537 16.372V12.462C21.0533 12.3331 21.002 12.2096 20.9108 12.1184C20.867 12.0735 20.8147 12.0378 20.7569 12.0132C20.6992 11.9887 20.6371 11.9759 20.5744 11.9756H17.023V9.68989C17.023 8.59061 17.2801 8.03276 18.6844 8.03276H20.7215C20.8488 8.03126 20.9702 7.97936 21.0593 7.88844C21.1483 7.79753 21.1977 7.67502 21.1965 7.54777V3.91853C21.1977 3.7914 21.1484 3.669 21.0595 3.5781C20.9706 3.48721 20.8494 3.43523 20.7222 3.43353L17.698 3.42853C14.3002 3.42853 12.1052 5.72636 12.1052 9.28132V11.9799H9.06524Z" fill="white"/>
</svg>
