<svg width="30" height="30" viewBox="0 0 30 30" fill="none" xmlns="http://www.w3.org/2000/svg">
<g id="Subtract">
<path d="M22.0114 22.9698H20.1422L7.93909 6.92412H9.94495L22.0114 22.9698Z" fill="white"/>
<path fill-rule="evenodd" clip-rule="evenodd" d="M4.99963 0C2.23792 0 -0.000366211 2.23857 -0.000366211 5V25C-0.000366211 27.7614 2.23792 30 4.99963 30H24.9996C27.7614 30 29.9996 27.7614 29.9996 25V5C29.9996 2.23857 27.7614 0 24.9996 0H4.99963ZM24.6989 5H21.3258L15.7672 11.3919L10.9606 5.00092H3.99963L12.317 15.9372L4.4342 25H7.8092L13.8942 18.0079L19.2106 25H25.9996L17.3287 13.4728L24.6989 5Z" fill="white"/>
</g>
</svg>
