<svg width="30" height="30" viewBox="0 0 30 30" fill="none" xmlns="http://www.w3.org/2000/svg">
<path id="Combined Shape" d="M24.8558 29.9997H5.1417C3.77821 29.9981 2.471 29.4558 1.50686 28.4917C0.542728 27.5276 0.000413837 26.2203 -0.00109863 24.8569V5.1428C0.000413837 3.77931 0.542728 2.47209 1.50686 1.50796C2.471 0.543827 3.77821 0.00151247 5.1417 0L24.8558 0C26.2192 0.00151247 27.5265 0.543827 28.4906 1.50796C29.4547 2.47209 29.997 3.77931 29.9986 5.1428V24.8569C29.997 26.2203 29.4547 27.5276 28.4906 28.4917C27.5265 29.4558 26.2192 29.9981 24.8558 29.9997ZM11.1945 4.99994C9.55182 5.00164 7.97692 5.65494 6.81538 6.81648C5.65384 7.97802 5.00055 9.55292 4.99884 11.1956V19.6012C5.00073 21.2437 5.654 22.8184 6.81534 23.9798C7.97668 25.1413 9.55129 25.7948 11.1938 25.7968H19.6001C21.2427 25.795 22.8175 25.1416 23.979 23.9801C25.1405 22.8186 25.7939 21.2438 25.7957 19.6012V11.1956C25.7939 9.55298 25.1405 7.97819 23.979 6.81669C22.8175 5.65519 21.2427 5.00183 19.6001 4.99994H11.1945ZM19.6001 23.7047H11.1945C10.1065 23.7036 9.06342 23.2709 8.29411 22.5016C7.5248 21.7323 7.0921 20.6892 7.09096 19.6012V11.1956C7.0921 10.1076 7.5248 9.06452 8.29411 8.29521C9.06342 7.52589 10.1065 7.09319 11.1945 7.09206H19.6001C20.6881 7.09319 21.7312 7.52589 22.5005 8.29521C23.2698 9.06452 23.7025 10.1076 23.7036 11.1956V19.6012C23.7025 20.6892 23.2698 21.7323 22.5005 22.5016C21.7312 23.2709 20.6881 23.7036 19.6001 23.7047ZM15.3973 10.0192C14.3335 10.0192 13.2936 10.3346 12.4092 10.9256C11.5247 11.5166 10.8353 12.3566 10.4282 13.3394C10.0211 14.3222 9.9146 15.4036 10.1221 16.447C10.3297 17.4903 10.8419 18.4487 11.5941 19.2009C12.3463 19.9531 13.3047 20.4653 14.348 20.6728C15.3913 20.8804 16.4728 20.7739 17.4556 20.3668C18.4384 19.9597 19.2784 19.2703 19.8694 18.3858C20.4604 17.5013 20.7758 16.4614 20.7758 15.3977C20.7741 13.9717 20.2069 12.6047 19.1986 11.5964C18.1903 10.5881 16.8232 10.0209 15.3973 10.0192ZM20.7844 8.77133C20.5301 8.77133 20.2815 8.84673 20.0701 8.98801C19.8586 9.12928 19.6939 9.33008 19.5965 9.56501C19.4992 9.79994 19.4738 10.0585 19.5234 10.3079C19.573 10.5573 19.6954 10.7863 19.8752 10.9662C20.0551 11.146 20.2841 11.2684 20.5335 11.318C20.7829 11.3676 21.0415 11.3422 21.2764 11.2449C21.5113 11.1475 21.7121 10.9828 21.8534 10.7713C21.9947 10.5599 22.0701 10.3113 22.0701 10.057C22.0688 9.71644 21.9329 9.39018 21.692 9.14935C21.4512 8.90852 21.125 8.77264 20.7844 8.77133ZM15.3944 18.6855C14.7446 18.6855 14.1093 18.4928 13.569 18.1318C13.0287 17.7707 12.6076 17.2576 12.3589 16.6572C12.1102 16.0568 12.0451 15.3962 12.1719 14.7588C12.2987 14.1215 12.6116 13.536 13.0711 13.0765C13.5306 12.617 14.1161 12.3041 14.7534 12.1773C15.3908 12.0505 16.0514 12.1156 16.6518 12.3643C17.2522 12.6129 17.7653 13.0341 18.1264 13.5744C18.4874 14.1147 18.6801 14.75 18.6801 15.3998C18.6786 16.2702 18.3323 17.1046 17.7171 17.7202C17.1018 18.3359 16.2677 18.6827 15.3973 18.6848L15.3944 18.6855Z" fill="white"/>
</svg>
