<svg width="30" height="30" viewBox="0 0 30 30" fill="none" xmlns="http://www.w3.org/2000/svg">
<path id="Combined Shape" d="M24.8561 29.9997H5.14206C3.77857 29.9981 2.47136 29.4558 1.50723 28.4917C0.543095 27.5276 0.000780048 26.2203 -0.000732422 24.8569V5.1428C0.000780048 3.77931 0.543095 2.47209 1.50723 1.50796C2.47136 0.543827 3.77857 0.00151247 5.14206 0L24.8561 0C26.2196 0.00151247 27.5268 0.543827 28.491 1.50796C29.4551 2.47209 29.9974 3.77931 29.9989 5.1428V24.8569C29.9974 26.2203 29.4551 27.5276 28.491 28.4917C27.5268 29.4558 26.2196 29.9981 24.8561 29.9997ZM11.9413 12.1427C11.997 13.3213 11.9413 24.7233 11.9413 24.8354H16.1555V17.7484C16.1383 17.3994 16.1868 17.0502 16.2984 16.7191C16.4608 16.2735 16.7544 15.8876 17.1405 15.612C17.5266 15.3365 17.987 15.1843 18.4612 15.1755C19.859 15.1755 20.5976 16.1684 20.5976 18.0462V24.8369H24.8118V17.5591C24.915 15.9959 24.4201 14.4519 23.4276 13.2398C22.9807 12.7758 22.4407 12.4117 21.843 12.1713C21.2453 11.931 20.6034 11.82 19.9597 11.8456C19.1945 11.8117 18.4346 11.9896 17.764 12.3597C17.0933 12.7299 16.5377 13.2779 16.1584 13.9434V12.1427H11.9413ZM5.39278 12.1427V24.8354H9.60701V12.1427H5.39278ZM7.52918 6.02422C7.22828 5.99898 6.92542 6.03597 6.63944 6.13289C6.35347 6.22982 6.09052 6.38459 5.86697 6.58757C5.64342 6.79055 5.46407 7.03738 5.34008 7.3127C5.21609 7.58802 5.15012 7.88593 5.14629 8.18785C5.14245 8.48978 5.20083 8.78926 5.31779 9.06764C5.43475 9.34602 5.60778 9.59733 5.8261 9.80593C6.04442 10.0145 6.30336 10.1759 6.58678 10.2801C6.8702 10.3842 7.17203 10.4289 7.47347 10.4113H7.50204C7.80402 10.4363 8.10791 10.3986 8.39466 10.3007C8.68141 10.2027 8.94482 10.0466 9.1684 9.84203C9.39197 9.6375 9.57088 9.38898 9.69392 9.11207C9.81695 8.83515 9.88145 8.5358 9.88337 8.23279C9.8853 7.92978 9.8246 7.62964 9.7051 7.35118C9.58559 7.07273 9.40985 6.82196 9.18889 6.61461C8.96793 6.40725 8.70652 6.24778 8.42104 6.14618C8.13556 6.04459 7.83217 6.00307 7.52989 6.02422H7.52918Z" fill="white"/>
</svg>
