<svg width="40" height="40" viewBox="0 0 40 40" fill="none" xmlns="http://www.w3.org/2000/svg">
<path id="Combined Shape" d="M33.1429 40H6.85714C5.03913 39.998 3.29616 39.2749 2.01064 37.9894C0.725111 36.7038 0.00201665 34.9609 0 33.1429V6.85714C0.00201665 5.03913 0.725111 3.29616 2.01064 2.01064C3.29616 0.725111 5.03913 0.00201665 6.85714 0L33.1429 0C34.9609 0.00201665 36.7038 0.725111 37.9894 2.01064C39.2749 3.29616 39.998 5.03913 40 6.85714V33.1429C39.998 34.9609 39.2749 36.7038 37.9894 37.9894C36.7038 39.2749 34.9609 39.998 33.1429 40ZM14.9276 6.66667C12.7374 6.66894 10.6375 7.54001 9.08875 9.08875C7.54001 10.6375 6.66894 12.7374 6.66667 14.9276V26.1352C6.66919 28.3252 7.54021 30.4248 9.08869 31.9735C10.6372 33.5221 12.7367 34.3934 14.9267 34.3962H26.1352C28.3254 34.3937 30.4251 33.5225 31.9738 31.9738C33.5225 30.4251 34.3937 28.3254 34.3962 26.1352V14.9276C34.3937 12.7375 33.5225 10.6377 31.9738 9.08903C30.4251 7.54034 28.3254 6.66919 26.1352 6.66667H14.9276ZM26.1352 31.6067H14.9276C13.477 31.6052 12.0862 31.0282 11.0604 30.0025C10.0346 28.9767 9.4577 27.5859 9.45619 26.1352V14.9276C9.4577 13.477 10.0346 12.0862 11.0604 11.0604C12.0862 10.0346 13.477 9.4577 14.9276 9.45619H26.1352C27.5859 9.4577 28.9767 10.0346 30.0025 11.0604C31.0282 12.0862 31.6052 13.477 31.6067 14.9276V26.1352C31.6052 27.5859 31.0282 28.9767 30.0025 30.0025C28.9767 31.0282 27.5859 31.6052 26.1352 31.6067ZM20.5314 13.359C19.1131 13.359 17.7265 13.7796 16.5472 14.5677C15.3679 15.3557 14.4487 16.4757 13.9059 17.7861C13.3631 19.0965 13.2211 20.5384 13.4978 21.9296C13.7745 23.3207 14.4575 24.5985 15.4605 25.6014C16.4634 26.6044 17.7412 27.2874 19.1324 27.5641C20.5235 27.8408 21.9654 27.6988 23.2758 27.156C24.5862 26.6132 25.7062 25.694 26.4943 24.5147C27.2823 23.3354 27.7029 21.9489 27.7029 20.5305C27.7006 18.6292 26.9443 16.8064 25.5999 15.462C24.2555 14.1176 22.4327 13.3613 20.5314 13.359ZM27.7143 11.6952C27.3752 11.6952 27.0438 11.7958 26.7619 11.9841C26.48 12.1725 26.2602 12.4403 26.1305 12.7535C26.0007 13.0667 25.9668 13.4114 26.0329 13.744C26.0991 14.0765 26.2624 14.382 26.5021 14.6217C26.7418 14.8615 27.0473 15.0247 27.3798 15.0909C27.7124 15.157 28.0571 15.1231 28.3703 14.9933C28.6836 14.8636 28.9513 14.6438 29.1397 14.3619C29.328 14.08 29.4286 13.7486 29.4286 13.4095C29.4268 12.9554 29.2456 12.5204 28.9245 12.1993C28.6034 11.8782 28.1684 11.697 27.7143 11.6952ZM20.5276 24.9143C19.6611 24.9143 18.8141 24.6573 18.0937 24.176C17.3732 23.6946 16.8117 23.0104 16.4801 22.2099C16.1486 21.4093 16.0618 20.5285 16.2308 19.6787C16.3999 18.8288 16.8171 18.0482 17.4298 17.4355C18.0425 16.8228 18.8231 16.4056 19.6729 16.2366C20.5228 16.0675 21.4036 16.1543 22.2041 16.4859C23.0047 16.8174 23.6889 17.379 24.1702 18.0994C24.6516 18.8199 24.9086 19.6669 24.9086 20.5333C24.9066 21.6939 24.4448 22.8063 23.6245 23.6272C22.8041 24.4481 21.692 24.9106 20.5314 24.9133L20.5276 24.9143Z" fill="#89B369"/>
</svg>
